<svg xmlns="http://www.w3.org/2000/svg" width="16" height="16" viewBox="0 0 16 16">
  <path fill="currentColor" d="M8 1.5a6.5 6.5 0 1 0 0 13 6.5 6.5 0 0 0 0-13Zm0 1a5.5 5.5 0 1 1 0 11 5.5 5.5 0 0 1 0-11Z"/>
  <path fill="currentColor" d="M8 3.25a.75.75 0 0 0-.75.75v3.9c0 .2.08.39.22.53l2.2 2.2a.75.75 0 1 0 1.06-1.06L8.75 7.56V4a.75.75 0 0 0-.75-.75Z"/>
  <path fill="currentColor" d="M4.1 11.35a.55.55 0 0 0-.08.78l.35.35h7.26l.35-.35a.55.55 0 0 0-.78-.78l-.22.22H4.9l-.22-.22Z"/>
  <path fill="currentColor" d="M5.15 9.55h.9v.7h-.9v-.7Zm1.35 0h.9v.7h-.9v-.7Zm1.35 0h.9v.7h-.9v-.7Zm1.35 0h.9v.7h-.9v-.7Z"/>
</svg>
