<svg xmlns="http://www.w3.org/2000/svg" width="16" height="16" viewBox="0 0 16 16">
  <path fill="currentColor" d="M3 2.5h10a1.5 1.5 0 0 1 1.5 1.5v8a1.5 1.5 0 0 1-1.5 1.5H3A1.5 1.5 0 0 1 1.5 12V4A1.5 1.5 0 0 1 3 2.5Zm0 1a.5.5 0 0 0-.5.5v8a.5.5 0 0 0 .5.5h10a.5.5 0 0 0 .5-.5V4a.5.5 0 0 0-.5-.5H3Z"/>
  <path fill="currentColor" d="M4.25 5.25h1.1v1.1h-1.1v-1.1Zm1.85 0h1.1v1.1H6.1v-1.1Zm1.85 0h1.1v1.1h-1.1v-1.1Zm2.95 0h1.1v1.1h-1.1v-1.1ZM4.25 7.15h1.1v1.1h-1.1v-1.1Zm1.85 0h1.1v1.1H6.1v-1.1Zm1.85 0h1.1v1.1h-1.1v-1.1Zm2.95 0h1.1v1.1h-1.1v-1.1Z"/>
  <path fill="currentColor" d="M7.15 9.9h1.7a.55.55 0 0 1 0 1.1H7.15a.55.55 0 0 1 0-1.1Z"/>
</svg>
